<svg width="24" height="24" viewBox="0 0 24 24" fill="none" xmlns="http://www.w3.org/2000/svg">
<path d="M15.12 11.52C15.12 12.4748 14.7407 13.3905 14.0656 14.0656C13.3905 14.7407 12.4748 15.12 11.52 15.12C10.5652 15.12 9.64955 14.7407 8.97442 14.0656C8.29928 13.3905 7.92 12.4748 7.92 11.52C7.92 11.3148 7.9416 11.1144 7.9788 10.92H6.72V15.7164C6.72 16.05 6.99 16.32 7.3236 16.32H15.7176C15.8775 16.3197 16.0307 16.256 16.1436 16.1428C16.2566 16.0296 16.32 15.8763 16.32 15.7164V10.92H15.0612C15.0984 11.1144 15.12 11.3148 15.12 11.52V11.52ZM11.52 13.92C11.8353 13.9199 12.1474 13.8578 12.4386 13.737C12.7298 13.6163 12.9944 13.4394 13.2173 13.2165C13.4402 12.9935 13.6169 12.7288 13.7375 12.4375C13.8581 12.1462 13.9201 11.8341 13.92 11.5188C13.9199 11.2035 13.8578 10.8914 13.737 10.6002C13.6163 10.309 13.4394 10.0444 13.2165 9.8215C12.9935 9.59864 12.7288 9.42187 12.4375 9.30131C12.1462 9.18074 11.8341 9.11872 11.5188 9.1188C10.8821 9.11896 10.2716 9.37203 9.8215 9.82234C9.37141 10.2727 9.11864 10.8833 9.1188 11.52C9.11896 12.1567 9.37203 12.7672 9.82234 13.2173C10.2727 13.6674 10.8833 13.9202 11.52 13.92V13.92ZM14.4 9H15.8388C15.9344 9 16.0261 8.96211 16.0938 8.89463C16.1615 8.82715 16.1997 8.73559 16.2 8.64V7.2012C16.2 7.1054 16.1619 7.01353 16.0942 6.94579C16.0265 6.87806 15.9346 6.84 15.8388 6.84H14.4C14.3042 6.84 14.2123 6.87806 14.1446 6.94579C14.0769 7.01353 14.0388 7.1054 14.0388 7.2012V8.64C14.04 8.838 14.202 9 14.4 9V9ZM11.52 0C8.46471 0 5.53455 1.21371 3.37413 3.37413C1.21371 5.53455 0 8.46471 0 11.52C0 14.5753 1.21371 17.5055 3.37413 19.6659C5.53455 21.8263 8.46471 23.04 11.52 23.04C13.0328 23.04 14.5308 22.742 15.9285 22.1631C17.3262 21.5842 18.5961 20.7356 19.6659 19.6659C20.7356 18.5961 21.5842 17.3262 22.1631 15.9285C22.742 14.5308 23.04 13.0328 23.04 11.52C23.04 10.0072 22.742 8.50916 22.1631 7.11149C21.5842 5.71382 20.7356 4.44386 19.6659 3.37413C18.5961 2.3044 17.3262 1.45584 15.9285 0.876908C14.5308 0.297974 13.0328 0 11.52 0V0ZM17.52 16.1868C17.52 16.92 16.92 17.52 16.1868 17.52H6.8532C6.12 17.52 5.52 16.92 5.52 16.1868V6.8532C5.52 6.12 6.12 5.52 6.8532 5.52H16.1868C16.92 5.52 17.52 6.12 17.52 6.8532V16.1868V16.1868Z" fill="#F8F8F8"/>
</svg>
