<svg width="25" height="24" viewBox="0 0 25 24" fill="none" xmlns="http://www.w3.org/2000/svg">
<path fill-rule="evenodd" clip-rule="evenodd" d="M4.83867 4.80039C4.83867 4.16387 5.09153 3.55342 5.54162 3.10333C5.9917 2.65325 6.60215 2.40039 7.23867 2.40039H16.8387C17.4752 2.40039 18.0856 2.65325 18.5357 3.10333C18.9858 3.55342 19.2387 4.16387 19.2387 4.80039V19.2004C19.5569 19.2004 19.8622 19.3268 20.0872 19.5519C20.3122 19.7769 20.4387 20.0821 20.4387 20.4004C20.4387 20.7187 20.3122 21.0239 20.0872 21.2489C19.8622 21.474 19.5569 21.6004 19.2387 21.6004H15.6387C15.3204 21.6004 15.0152 21.474 14.7901 21.2489C14.5651 21.0239 14.4387 20.7187 14.4387 20.4004V18.0004C14.4387 17.6821 14.3122 17.3769 14.0872 17.1519C13.8622 16.9268 13.5569 16.8004 13.2387 16.8004H10.8387C10.5204 16.8004 10.2152 16.9268 9.99014 17.1519C9.7651 17.3769 9.63867 17.6821 9.63867 18.0004V20.4004C9.63867 20.7187 9.51224 21.0239 9.2872 21.2489C9.06216 21.474 8.75693 21.6004 8.43867 21.6004H4.83867C4.52041 21.6004 4.21519 21.474 3.99014 21.2489C3.7651 21.0239 3.63867 20.7187 3.63867 20.4004C3.63867 20.0821 3.7651 19.7769 3.99014 19.5519C4.21519 19.3268 4.52041 19.2004 4.83867 19.2004V4.80039ZM8.43867 6.00039H10.8387V8.40039H8.43867V6.00039ZM10.8387 10.8004H8.43867V13.2004H10.8387V10.8004ZM13.2387 6.00039H15.6387V8.40039H13.2387V6.00039ZM15.6387 10.8004H13.2387V13.2004H15.6387V10.8004Z" fill="#F8F8F8"/>
</svg>
