<svg width="16" height="16" viewBox="0 0 16 16" fill="none" xmlns="http://www.w3.org/2000/svg">
<path fill-rule="evenodd" clip-rule="evenodd" d="M0 8C0 5.87827 0.842855 3.84344 2.34315 2.34315C3.84344 0.842855 5.87827 0 8 0C10.1217 0 12.1566 0.842855 13.6569 2.34315C15.1571 3.84344 16 5.87827 16 8C16 10.1217 15.1571 12.1566 13.6569 13.6569C12.1566 15.1571 10.1217 16 8 16C5.87827 16 3.84344 15.1571 2.34315 13.6569C0.842855 12.1566 0 10.1217 0 8H0ZM8 3.73333C8.10142 3.7333 8.20074 3.76218 8.28632 3.81659C8.3719 3.871 8.4402 3.94869 8.4832 4.04053L9.51467 6.24L11.8133 6.592C11.9101 6.60693 12.001 6.64822 12.0758 6.71136C12.1507 6.77449 12.2068 6.85702 12.2378 6.94991C12.2689 7.04279 12.2738 7.14244 12.252 7.23792C12.2302 7.3334 12.1825 7.42103 12.1141 7.4912L10.4363 9.21173L10.8341 11.648C10.8503 11.7469 10.8383 11.8483 10.7995 11.9407C10.7607 12.0331 10.6967 12.1126 10.6148 12.1703C10.5328 12.228 10.4363 12.2614 10.3363 12.2667C10.2362 12.2721 10.1367 12.2491 10.0491 12.2005L8 11.0667L5.95093 12.2005C5.86324 12.2492 5.76358 12.2722 5.66341 12.2668C5.56325 12.2615 5.46662 12.2279 5.38464 12.1701C5.30266 12.1123 5.23865 12.0326 5.19995 11.94C5.16125 11.8475 5.14944 11.7459 5.16587 11.6469L5.56373 9.21173L3.8848 7.4912C3.81615 7.42099 3.76821 7.3332 3.74627 7.23749C3.72433 7.14177 3.72923 7.04186 3.76045 6.94876C3.79167 6.85566 3.84798 6.77299 3.92319 6.70985C3.99839 6.64671 4.08957 6.60556 4.18667 6.59093L6.48427 6.24L7.5168 4.04053C7.5598 3.94869 7.6281 3.871 7.71368 3.81659C7.79926 3.76218 7.89859 3.7333 8 3.73333Z" fill="#F8F8F8"/>
</svg>
