<svg width="25" height="24" viewBox="0 0 25 24" fill="none" xmlns="http://www.w3.org/2000/svg">
<path d="M20.1998 6.84024C17.3198 2.40024 11.4398 1.08024 6.87977 3.84024C2.43977 6.60024 0.999775 12.6002 3.87977 17.0402L4.11977 17.4002L3.15977 21.0002L6.75977 20.0402L7.11978 20.2802C8.67978 21.1202 10.3598 21.6002 12.0398 21.6002C13.8398 21.6002 15.6398 21.1202 17.1998 20.1602C21.6398 17.2802 22.9598 11.4002 20.1998 6.84024V6.84024ZM17.6798 16.0802C17.1998 16.8002 16.5998 17.2802 15.7598 17.4002C15.2798 17.4002 14.6798 17.6402 12.2798 16.6802C10.2398 15.7202 8.55977 14.1602 7.35977 12.3602C6.63977 11.5202 6.27977 10.4402 6.15977 9.36024C6.15977 8.40024 6.51977 7.56024 7.11978 6.96024C7.35978 6.72024 7.59977 6.60024 7.83977 6.60024H8.43977C8.67977 6.60024 8.91977 6.60024 9.03977 7.08024C9.27977 7.68024 9.87977 9.12024 9.87977 9.24024C9.99977 9.36024 9.99977 9.60024 9.87977 9.72024C9.99977 9.96024 9.87978 10.2002 9.75978 10.3202C9.63978 10.4402 9.51978 10.6802 9.39978 10.8002C9.15978 10.9202 9.03977 11.1602 9.15977 11.4002C9.63977 12.1202 10.2398 12.8402 10.8398 13.4402C11.5598 14.0402 12.2798 14.5202 13.1198 14.8802C13.3598 15.0002 13.5998 15.0002 13.7198 14.7602C13.8398 14.5202 14.4398 13.9202 14.6798 13.6802C14.9198 13.4402 15.0398 13.4402 15.2798 13.5602L17.1998 14.5202C17.4398 14.6402 17.6798 14.7602 17.7998 14.8802C17.9198 15.2402 17.9198 15.7202 17.6798 16.0802V16.0802Z" fill="#F8F8F8"/>
</svg>
